<!-- Generated by IcoMoon.io -->
<svg version="1.1" xmlns="http://www.w3.org/2000/svg" width="32" height="32" viewBox="0 0 32 32">
<title>upload-to-cloud</title>
<path d="M24.341 10.622c-0.442 0-0.874 0.040-1.294 0.109-1.050-3.432-4.301-5.931-8.152-5.931-4.702 0-8.512 3.725-8.512 8.318 0 0.41 0.032 0.813 0.091 1.21-0.226-0.027-0.453-0.043-0.686-0.043-3.197 0-5.787 2.531-5.787 5.656s2.59 5.659 5.787 5.659h7.013v-6.4h-4l7.2-8 7.2 8h-4v6.4h5.141c4.229 0 7.659-3.354 7.659-7.488 0-4.138-3.43-7.49-7.659-7.49z"></path>
</svg>
